<?xml version="1.0" standalone="no"?>
<!DOCTYPE svg PUBLIC "-//W3C//DTD SVG 20010904//EN"
 "http://www.w3.org/TR/2001/REC-SVG-20010904/DTD/svg10.dtd">
<svg version="1.0" xmlns="http://www.w3.org/2000/svg"
 width="700.000000pt" height="700.000000pt" viewBox="0 0 700.000000 700.000000"
 preserveAspectRatio="xMidYMid meet">
<metadata>
Created by potrace 1.11, written by Peter Selinger 2001-2013
</metadata>
<g transform="translate(0.000000,700.000000) scale(0.100000,-0.100000)"
fill="#000000" stroke="none">
<path d="M5224 6971 c-23 -10 -53 -34 -67 -52 -23 -32 -216 -563 -230 -636
-10 -52 18 -126 62 -166 84 -76 196 -71 274 11 39 40 237 602 237 670 0 63
-33 127 -82 160 -53 35 -136 41 -194 13z"/>
<path d="M6530 6790 c-19 -10 -202 -186 -406 -392 -343 -345 -372 -377 -383
-420 -18 -78 2 -143 63 -196 60 -53 146 -64 216 -27 14 8 194 184 402 392 359
361 376 380 386 426 19 91 -20 177 -98 217 -50 26 -132 26 -180 0z"/>
<path d="M1574 6522 c-93 -32 -197 -129 -247 -227 -21 -43 -40 -141 -32 -173
l6 -28 41 38 c23 21 71 53 107 71 57 28 75 32 141 31 85 -1 150 -23 225 -74
27 -18 487 -470 1023 -1004 536 -534 978 -971 982 -971 9 0 150 117 150 125 0
3 -413 415 -917 915 -590 586 -930 930 -953 967 -20 31 -44 83 -54 116 -14 50
-24 67 -63 98 -148 123 -280 160 -409 116z"/>
<path d="M789 5947 c-107 -30 -218 -129 -270 -242 -63 -134 -29 -293 90 -418
20 -21 80 -79 133 -128 l97 -90 68 69 c113 114 223 151 353 118 132 -33 92 3
1192 -1095 l688 -685 52 58 c29 33 59 67 66 77 12 17 -84 114 -969 996 -623
620 -996 999 -1019 1035 -20 31 -43 77 -50 102 -36 131 -280 245 -431 203z"/>
<path d="M3721 5918 c-54 -8 -141 -49 -164 -76 -10 -13 81 -107 573 -595 322
-319 635 -622 695 -675 185 -159 331 -245 439 -258 99 -12 105 -18 -505 593
-648 650 -635 633 -648 785 -6 74 -8 78 -46 112 -22 19 -65 48 -95 64 -94 50
-161 64 -249 50z"/>
<path d="M6530 5419 c-124 -43 -244 -86 -268 -95 -118 -44 -172 -162 -123
-269 32 -69 102 -115 174 -115 29 0 439 137 553 185 83 34 124 97 124 188 0
104 -86 188 -191 187 -29 -1 -122 -29 -269 -81z"/>
<path d="M410 4964 c-103 -28 -211 -119 -268 -229 -24 -44 -27 -61 -27 -150 0
-89 3 -106 27 -155 39 -80 75 -118 341 -365 l239 -222 51 54 c33 35 76 66 123
90 71 34 76 35 161 31 120 -6 180 -36 298 -148 50 -47 349 -342 665 -657 316
-315 578 -573 582 -575 6 -2 98 161 98 174 0 3 -411 415 -914 917 -624 624
-922 928 -939 960 -14 25 -33 72 -42 103 -19 67 -49 97 -140 139 -56 26 -145
50 -184 48 -9 0 -41 -7 -71 -15z"/>
<path d="M305 3714 c-141 -45 -270 -194 -290 -335 -13 -87 26 -207 91 -289 27
-33 277 -267 1732 -1619 298 -277 580 -534 626 -571 343 -273 717 -418 1156
-450 243 -18 343 -48 539 -161 171 -98 257 -130 394 -149 162 -23 320 26 422
129 39 41 45 51 30 51 -39 1 -182 67 -290 134 -195 123 -318 168 -504 186
-426 41 -763 168 -1089 412 -107 80 -330 298 -1579 1543 -715 711 -807 806
-838 866 -19 37 -38 89 -41 116 -8 61 -20 73 -102 111 -85 40 -183 49 -257 26z"/>
<path d="M415 1979 c-306 -109 -303 -108 -343 -143 -43 -38 -62 -81 -62 -141
0 -60 19 -103 63 -142 44 -38 98 -57 146 -50 31 4 330 105 528 179 90 33 140
113 131 210 -6 58 -44 111 -104 145 -66 38 -112 31 -359 -58z"/>
<path d="M995 1251 c-43 -20 -768 -739 -793 -787 -7 -14 -13 -50 -13 -80 0
-102 71 -182 171 -192 95 -9 96 -8 493 387 213 211 377 383 390 406 49 95 12
211 -85 259 -61 31 -108 33 -163 7z"/>
<path d="M1805 921 c-78 -36 -89 -57 -201 -376 -106 -302 -117 -350 -93 -412
25 -66 109 -122 183 -123 51 0 120 34 150 74 38 50 228 601 228 661 1 79 -45
147 -124 179 -49 21 -94 20 -143 -3z"/>
</g>
</svg>
